<?xml version="1.0" encoding="iso-8859-1"?>
<!-- Uploaded to: SVG Repo, www.svgrepo.com, Generator: SVG Repo Mixer Tools -->
<svg height="800px" width="800px" version="1.1" id="Layer_1" xmlns="http://www.w3.org/2000/svg" xmlns:xlink="http://www.w3.org/1999/xlink" 
	 viewBox="0 0 512.001 512.001" xml:space="preserve">
<path style="fill:#B3404A;" d="M86.883,423.441H15.054C6.74,423.441,0,416.7,0,408.387V159.603c0-8.313,6.74-15.054,15.054-15.054
	h71.829c8.314,0,15.054,6.741,15.054,15.054v132.043c0,8.313-6.74,15.054-15.054,15.054s-15.054-6.741-15.054-15.054V174.657H30.108
	v218.676h41.722v-28.605c0-8.313,6.74-15.054,15.054-15.054s15.054,6.741,15.054,15.054v43.659
	C101.937,416.7,95.197,423.441,86.883,423.441z"/>
<path style="fill:#F4B2B0;" d="M313.987,302.481h15.951c15.948,0,29.53-13.01,30.096-29.728
	c0.595-17.553-12.793-31.979-29.391-31.979H313.43l154.106-0.333c16.243,0,29.411-13.813,29.411-30.854V208.4
	c0-17.039-13.168-30.854-29.411-30.854H356.864h-25.447h-76.908l73.098-30.02c15.769-5.281,24.465-22.984,19.431-39.527
	c-5.043-16.543-21.909-25.665-37.684-20.384L173.61,153.532c-16.765,8.141-27.5,25.756-27.509,45.137l-0.078,177.421
	c-0.012,27.491,21.226,49.783,47.432,49.786l116.556,0.018c16.243,0,29.411-13.813,29.411-30.854l0,0
	c0-17.039-13.168-30.854-29.411-30.854h6.99c16.243,0,29.411-13.813,29.411-30.854l0,0c0-17.039-13.168-30.854-29.411-30.854"/>
<path style="fill:#B3404A;" d="M310.008,440.95l-116.557-0.02c-16.832-0.001-32.616-6.84-44.443-19.255
	c-11.641-12.218-18.046-28.41-18.039-45.591l0.077-177.421c0.012-25.031,14.137-48.062,35.988-58.672l135.745-65.918
	c0.583-0.283,1.182-0.528,1.796-0.733c11.308-3.786,23.391-2.853,34.022,2.625c11.03,5.684,19.142,15.502,22.843,27.643
	c7.325,24.074-5.459,49.967-28.529,58.013l-2.121,0.87h136.749c24.518,0,44.464,20.595,44.464,45.908v1.186
	c0,25.313-19.946,45.907-44.464,45.907l-95.206,0.206c1.995,5.564,2.955,11.533,2.75,17.56
	c-0.521,15.338-8.286,28.625-19.916,36.537c3.998,6.886,6.3,14.939,6.3,23.537c0,13.886-6,26.35-15.465,34.776
	c5.329,7.569,8.475,16.88,8.475,26.933C354.472,420.355,334.526,440.95,310.008,440.95z M314.896,101.658l-134.712,65.415
	c-11.555,5.612-19.025,18.016-19.031,31.602l-0.077,177.42c-0.003,9.41,3.452,18.223,9.729,24.81
	c6.091,6.393,14.134,9.914,22.648,9.916l116.556,0.02c7.914,0,14.354-7.089,14.354-15.8c0-8.712-6.44-15.799-14.357-15.799
	c-8.313,0-15.054-6.741-15.054-15.054c0-8.313,6.741-15.054,15.054-15.054h6.991c7.917,0,14.357-7.089,14.357-15.801
	s-6.44-15.801-14.357-15.801h-3.011c-8.313,0-15.054-6.741-15.054-15.054s6.741-15.054,15.054-15.054h15.953
	c8.015,0.002,14.768-6.81,15.051-15.185c0.157-4.638-1.45-8.943-4.522-12.123c-2.675-2.768-6.165-4.293-9.824-4.293h-17.213
	c-8.308,0-15.045-6.731-15.054-15.037c-0.009-8.307,6.714-15.052,15.022-15.07l154.104-0.333c7.948,0,14.39-7.087,14.39-15.799
	v-1.186c0-8.712-6.44-15.8-14.357-15.8H254.51c-7.19,0-13.377-5.085-14.769-12.138c-1.392-7.056,2.398-14.108,9.049-16.841
	l73.098-30.02c0.309-0.128,0.622-0.244,0.939-0.349c8.085-2.708,12.487-12.07,9.809-20.869c-1.308-4.295-4.092-7.726-7.834-9.654
	C321.696,101.127,318.208,100.757,314.896,101.658z"/>
</svg>